<?xml version="1.0" encoding="UTF-8"?>
<!DOCTYPE svg PUBLIC "-//W3C//DTD SVG 1.1//EN" "http://www.w3.org/Graphics/SVG/1.1/DTD/svg11.dtd">
<!-- Creator: CorelDRAW 2020 (64-Bit) -->
<svg xmlns="http://www.w3.org/2000/svg" xml:space="preserve" width="43.3492mm" height="44.1112mm" version="1.1" style="shape-rendering:geometricPrecision; text-rendering:geometricPrecision; image-rendering:optimizeQuality; fill-rule:evenodd; clip-rule:evenodd"
viewBox="0 0 4334.92 4411.12"
 xmlns:xlink="http://www.w3.org/1999/xlink"
 xmlns:xodm="http://www.corel.com/coreldraw/odm/2003">
 <defs>
  <style type="text/css">
   <![CDATA[
    .str5 {stroke:#FF7853;stroke-width:19.98;stroke-miterlimit:22.9256}
    .str7 {stroke:#373435;stroke-width:20;stroke-miterlimit:22.9256}
    .str0 {stroke:#FFF212;stroke-width:20;stroke-miterlimit:22.9256}
    .str6 {stroke:#ED3237;stroke-width:20;stroke-miterlimit:22.9256}
    .str8 {stroke:#1BAF33;stroke-width:20;stroke-miterlimit:22.9256}
    .str4 {stroke:#543D25;stroke-width:20;stroke-miterlimit:22.9256}
    .str3 {stroke:#579D43;stroke-width:20;stroke-miterlimit:22.9256}
    .str1 {stroke:#94BC19;stroke-width:20;stroke-miterlimit:22.9256}
    .str2 {stroke:#FF7853;stroke-width:20;stroke-miterlimit:22.9256}
    .fil9 {fill:#D2D3D5}
    .fil0 {fill:#FFF212}
    .fil8 {fill:#00A859}
    .fil4 {fill:#543D25}
    .fil3 {fill:#579D43}
    .fil6 {fill:#5A3C24}
    .fil1 {fill:#94BC19}
    .fil7 {fill:#A28D72}
    .fil2 {fill:#FF7853}
    .fil5 {fill:url(#id0)}
   ]]>
  </style>
  <linearGradient id="id0" gradientUnits="userSpaceOnUse" x1="3339.78" y1="2355.81" x2="6804.11" y2="2373.53">
   <stop offset="0" style="stop-opacity:1; stop-color:#ED3237"/>
   <stop offset="0.831373" style="stop-opacity:1; stop-color:#F5989A"/>
   <stop offset="1" style="stop-opacity:1; stop-color:#FEFEFE"/>
  </linearGradient>
 </defs>
 <g id="Capa_x0020_1">
  <metadata id="CorelCorpID_0Corel-Layer"/>
  <path class="fil0 str0" d="M200.82 2142.64c-401.04,-1235.29 1209.5,-1885.41 4133.3,-2128.54l15.37 2128.54 -4148.67 0z"/>
  <path class="fil1 str1" d="M3293.87 1477.94c-125.59,-45.37 -202.59,-131.89 -212.01,-275.68 12.89,246.3 -205.62,334.58 -284.01,611.86 157.09,-225.14 343.26,-306.27 496.02,-336.18z"/>
  <ellipse class="fil1 str1" cx="3378.19" cy="1921.92" rx="609.6" ry="436.04"/>
  <ellipse class="fil2 str2" cx="782.09" cy="1807.05" rx="475.79" ry="494.83"/>
  <path class="fil3 str3" d="M696.45 1242.53c111.6,-48.46 218.59,-71.4 342.69,-34.78 129.05,75.38 193.02,300.52 271.08,413.74 -104.55,57.16 -151.49,-234.86 -285.76,-245.6 -125.51,-106.5 -245.98,-49.84 -328.01,-133.36z"/>
  <path class="fil4 str4" d="M677.39 1184.38l30.21 -1.01c-14.58,39.3 -5.24,81.08 9.92,120.38l-40.13 -1.47 0 -117.9z"/>
  <ellipse class="fil2 str5" cx="570.36" cy="1783.26" rx="425.83" ry="509.1"/>
  <path class="fil4 str4" d="M2018.3 968.19l70.71 0c-15.96,62.53 -14.01,127.65 8.27,375.54l-70.71 0 -8.27 -375.54z"/>
  <path class="fil5 str6" d="M2068.68 1351.83c-127.65,-139.64 -272.29,-220.69 -482.6,-160.87 -161.17,77.42 -306.19,193.14 -351.46,497.41 -18.76,70.35 8.57,211.55 98.89,452.29l1502.85 0c69.12,-138.37 118.94,-287.34 112.86,-467.1 -2.15,-246.74 -131.54,-417.43 -423.34,-491.06 -154.4,-4 -306.66,56.67 -457.2,169.33z"/>
  <rect class="fil4 str4" x="3335.86" y="706.94" width="70.71" height="213.43"/>
  <rect class="fil6 str7" x="200.82" y="2142.64" width="4148.67" height="2199.92"/>
  <rect class="fil7 str7" x="414.86" y="2366.43" width="3640.67" height="694.26"/>
  <rect class="fil7 str7" x="423.33" y="3331.63" width="3640.66" height="728.13"/>
  <rect class="fil6 str7" x="414.86" y="2613.39" width="3640.67" height="203.2"/>
  <rect class="fil6 str7" x="423.33" y="3578.59" width="3640.66" height="245.53"/>
  <ellipse class="fil1 str1" cx="3373.95" cy="1202.26" rx="292.1" ry="283.63"/>
  <path class="fil1 str1" d="M3445.03 1477.43c121.15,-84.92 216.79,-160.45 220.32,-255.42 95.4,258.49 274.34,475.91 311.28,616.44 -67.2,-194.96 -279.59,-323.31 -531.6,-361.02z"/>
  <path class="fil8 str8" d="M3406.57 797.32c40.19,-87.11 91.07,-156.79 183.29,-200.43 115.49,-23.44 222.16,-29.73 327.53,-4.14 -36.35,103.6 -92.78,183.25 -173.13,234.3 -112.68,50.53 -220.51,45.68 -337.69,-29.73z"/>
  <path class="fil3 str8" d="M2081.1 1082.33c40.19,-87.11 91.07,-156.79 183.29,-200.43 115.49,-23.44 222.16,-29.73 327.53,-4.14 -36.35,103.6 -92.78,183.25 -173.13,234.3 -112.68,50.53 -220.51,45.68 -337.69,-29.73z"/>
  <ellipse class="fil9 str7" cx="4281.6" cy="2235.29" rx="67.88" ry="63.5"/>
  <ellipse class="fil9 str7" cx="263.49" cy="2211.49" rx="67.88" ry="63.5"/>
  <ellipse class="fil9 str7" cx="4279.88" cy="4275.25" rx="67.88" ry="63.5"/>
  <ellipse class="fil9 str7" cx="289.94" cy="4259.38" rx="67.88" ry="63.5"/>
  <ellipse class="fil9 str7" cx="4281.6" cy="2235.29" rx="67.88" ry="63.5"/>
 </g>
</svg>
